<svg width="83" height="25" viewBox="0 0 83 25" fill="none" xmlns="http://www.w3.org/2000/svg">
<path d="M-1.36197e-05 15.2158L5.63999 5.6878H0.215986V2.1838H11.016V5.6878L5.49599 15.1918H11.256V18.6958H-1.36197e-05V15.2158ZM17.5444 18.8878C16.2004 18.8878 15.1524 18.4558 14.4004 17.5918C13.6484 16.7278 13.2724 15.5518 13.2724 14.0638V6.6718H18.3604V13.8478C18.3604 14.2158 18.4564 14.5038 18.6484 14.7118C18.8564 14.9038 19.1204 14.9998 19.4404 14.9998C19.7604 14.9998 20.0884 14.9038 20.4244 14.7118L20.6884 18.0478C20.3364 18.3198 19.8724 18.5278 19.2964 18.6718C18.7364 18.8158 18.1524 18.8878 17.5444 18.8878ZM15.8164 4.8718C15.0644 4.8718 14.4244 4.6398 13.8964 4.1758C13.3844 3.6958 13.1284 3.1118 13.1284 2.4238C13.1284 1.7358 13.4004 1.1598 13.9444 0.695799C14.4884 0.2318 15.1124 -0.000200272 15.8164 -0.000200272C16.5524 -0.000200272 17.1844 0.2398 17.7124 0.7198C18.2564 1.1998 18.5284 1.7678 18.5284 2.4238C18.5284 3.1278 18.2564 3.7118 17.7124 4.1758C17.1684 4.6398 16.5364 4.8718 15.8164 4.8718ZM22.086 6.8398H26.91V9.2878C27.838 7.4318 29.31 6.5038 31.326 6.5038C32.862 6.5038 34.062 7.0558 34.926 8.1598C35.806 9.2478 36.246 10.7598 36.246 12.6958V18.6958H31.206V12.1918C31.206 11.5038 31.054 10.9758 30.75 10.6078C30.462 10.2398 30.054 10.0558 29.526 10.0558C29.142 10.0558 28.766 10.1838 28.398 10.4398C28.03 10.6798 27.726 11.0318 27.486 11.4958C27.262 11.9598 27.15 12.4878 27.15 13.0798V18.6958H22.086V6.8398ZM45.3545 24.1918C44.4745 24.1918 43.6345 24.1038 42.8345 23.9278L43.2185 20.3758C43.8425 20.4718 44.4185 20.5198 44.9465 20.5198C45.9385 20.5198 46.6905 20.2238 47.2025 19.6318C47.7145 19.0558 48.0185 18.0798 48.1145 16.7038C47.1705 18.0318 45.7305 18.6958 43.7945 18.6958C42.7385 18.6958 41.7625 18.4238 40.8665 17.8798C39.9865 17.3358 39.2825 16.5998 38.7545 15.6718C38.2425 14.7438 37.9865 13.7278 37.9865 12.6238C37.9865 11.5038 38.2425 10.4798 38.7545 9.5518C39.2665 8.6078 39.9625 7.8638 40.8425 7.3198C41.7385 6.7758 42.7145 6.5038 43.7705 6.5038C44.7465 6.5038 45.5945 6.7598 46.3145 7.2718C47.0505 7.7678 47.5305 8.4398 47.7545 9.2878V6.5038H52.8186V15.6478C52.8186 18.4478 52.1785 20.5678 50.8985 22.0078C49.6345 23.4638 47.7865 24.1918 45.3545 24.1918ZM45.3545 15.0958C45.9945 15.0958 46.5465 14.8718 47.0105 14.4238C47.4745 13.9598 47.7225 13.4158 47.7545 12.7918V12.5998C47.7225 11.9918 47.4665 11.4558 46.9865 10.9918C46.5225 10.5278 45.9785 10.2958 45.3545 10.2958C44.6985 10.2958 44.1385 10.5358 43.6745 11.0158C43.2105 11.4798 42.9785 12.0398 42.9785 12.6958C42.9785 13.3518 43.2105 13.9198 43.6745 14.3998C44.1385 14.8638 44.6985 15.0958 45.3545 15.0958ZM61.466 18.8878C60.138 18.8878 58.954 18.6238 57.914 18.0958C56.89 17.5518 56.09 16.8158 55.514 15.8878C54.938 14.9438 54.65 13.8798 54.65 12.6958C54.65 11.4798 54.946 10.3998 55.538 9.4558C56.13 8.5118 56.93 7.7838 57.938 7.2718C58.946 6.7598 60.066 6.5038 61.298 6.5038C62.482 6.5038 63.49 6.7678 64.322 7.2958C65.17 7.8078 65.802 8.5118 66.218 9.4078C66.634 10.2878 66.8421 11.2798 66.8421 12.3838C66.8421 12.6718 66.826 12.8798 66.794 13.0078L59.594 13.9438C59.786 14.5038 60.098 14.9118 60.53 15.1678C60.962 15.4078 61.53 15.5278 62.234 15.5278C63.322 15.5278 64.498 15.2478 65.762 14.6878L66.362 17.9038C64.874 18.5598 63.242 18.8878 61.466 18.8878ZM63.122 10.9198C62.866 9.9118 62.258 9.4078 61.298 9.4078C60.722 9.4078 60.266 9.6238 59.93 10.0558C59.594 10.4878 59.418 11.0478 59.402 11.7358L63.122 10.9198ZM68.586 6.8398H73.41V9.2878C74.338 7.4318 75.81 6.5038 77.826 6.5038C79.362 6.5038 80.562 7.0558 81.426 8.1598C82.306 9.2478 82.746 10.7598 82.746 12.6958V18.6958H77.706V12.1918C77.706 11.5038 77.554 10.9758 77.25 10.6078C76.962 10.2398 76.554 10.0558 76.026 10.0558C75.642 10.0558 75.266 10.1838 74.898 10.4398C74.53 10.6798 74.226 11.0318 73.986 11.4958C73.762 11.9598 73.65 12.4878 73.65 13.0798V18.6958H68.586V6.8398Z" fill="#F4F4F5"/>
</svg>
