<svg width="35" height="36" viewBox="0 0 35 36" fill="none" xmlns="http://www.w3.org/2000/svg">
<g filter="url(#filter0_d_2230_444)">
<path d="M31.0009 19C31.0009 19.2652 30.8956 19.5196 30.7081 19.7071C30.5205 19.8946 30.2662 20 30.0009 20H28.0009V22C28.0009 22.2652 27.8956 22.5196 27.7081 22.7071C27.5205 22.8946 27.2662 23 27.0009 23C26.7357 23 26.4814 22.8946 26.2938 22.7071C26.1063 22.5196 26.0009 22.2652 26.0009 22V20H24.0009C23.7357 20 23.4814 19.8946 23.2938 19.7071C23.1063 19.5196 23.0009 19.2652 23.0009 19C23.0009 18.7348 23.1063 18.4804 23.2938 18.2929C23.4814 18.1054 23.7357 18 24.0009 18H26.0009V16C26.0009 15.7348 26.1063 15.4804 26.2938 15.2929C26.4814 15.1054 26.7357 15 27.0009 15C27.2662 15 27.5205 15.1054 27.7081 15.2929C27.8956 15.4804 28.0009 15.7348 28.0009 16V18H30.0009C30.2662 18 30.5205 18.1054 30.7081 18.2929C30.8956 18.4804 31.0009 18.7348 31.0009 19ZM7.00095 9H9.00095V11C9.00095 11.2652 9.10631 11.5196 9.29384 11.7071C9.48138 11.8946 9.73573 12 10.0009 12C10.2662 12 10.5205 11.8946 10.7081 11.7071C10.8956 11.5196 11.0009 11.2652 11.0009 11V9H13.0009C13.2662 9 13.5205 8.89464 13.7081 8.70711C13.8956 8.51957 14.0009 8.26522 14.0009 8C14.0009 7.73478 13.8956 7.48043 13.7081 7.29289C13.5205 7.10536 13.2662 7 13.0009 7H11.0009V5C11.0009 4.73478 10.8956 4.48043 10.7081 4.29289C10.5205 4.10536 10.2662 4 10.0009 4C9.73573 4 9.48138 4.10536 9.29384 4.29289C9.10631 4.48043 9.00095 4.73478 9.00095 5V7H7.00095C6.73573 7 6.48138 7.10536 6.29384 7.29289C6.1063 7.48043 6.00095 7.73478 6.00095 8C6.00095 8.26522 6.1063 8.51957 6.29384 8.70711C6.48138 8.89464 6.73573 9 7.00095 9ZM23.0009 24H22.0009V23C22.0009 22.7348 21.8956 22.4804 21.7081 22.2929C21.5205 22.1054 21.2662 22 21.0009 22C20.7357 22 20.4814 22.1054 20.2938 22.2929C20.1063 22.4804 20.0009 22.7348 20.0009 23V24H19.0009C18.7357 24 18.4814 24.1054 18.2938 24.2929C18.1063 24.4804 18.0009 24.7348 18.0009 25C18.0009 25.2652 18.1063 25.5196 18.2938 25.7071C18.4814 25.8946 18.7357 26 19.0009 26H20.0009V27C20.0009 27.2652 20.1063 27.5196 20.2938 27.7071C20.4814 27.8946 20.7357 28 21.0009 28C21.2662 28 21.5205 27.8946 21.7081 27.7071C21.8956 27.5196 22.0009 27.2652 22.0009 27V26H23.0009C23.2662 26 23.5205 25.8946 23.7081 25.7071C23.8956 25.5196 24.0009 25.2652 24.0009 25C24.0009 24.7348 23.8956 24.4804 23.7081 24.2929C23.5205 24.1054 23.2662 24 23.0009 24ZM27.4147 10L10.0009 27.4137C9.62591 27.7885 9.1174 27.9991 8.5872 27.9991C8.05699 27.9991 7.54848 27.7885 7.17345 27.4137L4.58595 24.8288C4.40018 24.643 4.25282 24.4225 4.15228 24.1798C4.05175 23.9372 4 23.6771 4 23.4144C4 23.1517 4.05175 22.8916 4.15228 22.6489C4.25282 22.4062 4.40018 22.1857 4.58595 22L22.0009 4.58625C22.1867 4.40048 22.4072 4.25312 22.6499 4.15259C22.8925 4.05205 23.1526 4.0003 23.4153 4.0003C23.678 4.0003 23.9381 4.05205 24.1808 4.15259C24.4235 4.25312 24.644 4.40048 24.8297 4.58625L27.4147 7.17125C27.6005 7.35697 27.7478 7.57747 27.8484 7.82015C27.9489 8.06283 28.0006 8.32294 28.0006 8.58562C28.0006 8.84831 27.9489 9.10842 27.8484 9.3511C27.7478 9.59378 27.6005 9.81428 27.4147 10ZM26.0009 8.58625L23.4147 6L19.4147 10L22.0009 12.5863L26.0009 8.58625Z" fill="url(#paint0_linear_2230_444)"/>
</g>
<defs>
<filter id="filter0_d_2230_444" x="-3.99902" y="0" width="40" height="40" filterUnits="userSpaceOnUse" color-interpolation-filters="sRGB">
<feFlood flood-opacity="0" result="BackgroundImageFix"/>
<feColorMatrix in="SourceAlpha" type="matrix" values="0 0 0 0 0 0 0 0 0 0 0 0 0 0 0 0 0 0 127 0" result="hardAlpha"/>
<feOffset dy="4"/>
<feGaussianBlur stdDeviation="2"/>
<feComposite in2="hardAlpha" operator="out"/>
<feColorMatrix type="matrix" values="0 0 0 0 0 0 0 0 0 0 0 0 0 0 0 0 0 0 0.25 0"/>
<feBlend mode="normal" in2="BackgroundImageFix" result="effect1_dropShadow_2230_444"/>
<feBlend mode="normal" in="SourceGraphic" in2="effect1_dropShadow_2230_444" result="shape"/>
</filter>
<linearGradient id="paint0_linear_2230_444" x1="4" y1="16" x2="31.0009" y2="16" gradientUnits="userSpaceOnUse">
<stop stop-color="#FC4A1A"/>
<stop offset="1" stop-color="#F7B733"/>
</linearGradient>
</defs>
</svg>
